<svg width="150" height="30" viewBox="0 0 150 30" fill="none" xmlns="http://www.w3.org/2000/svg">
<g clip-path="url(#clip0_1264_8364)">
<path d="M18.6152 0L26.2711 17.5221L31.6356 1.08123H37.2304L26.9911 30.0016L18.5828 11.1694L10.2068 30.0016L0 1.08123H5.59478L10.9268 17.5545L18.6152 0Z" fill="#F1C410"/>
<path d="M88.4948 28.9202H82.7362L92.4857 14.6078L83.1611 1.08105H88.9196L95.6593 10.8072L102.399 1.08105H108.19L98.8654 14.6078L108.615 28.9202H102.824L95.6593 18.3742L88.4948 28.9202Z" fill="#F1C410"/>
<path d="M148.022 7.72959C149.342 9.95699 150 12.3808 150 15.0011C150 17.6214 149.34 20.0452 148.022 22.2726C146.702 24.5 144.924 26.2631 142.69 27.5618C140.453 28.8606 138.006 29.51 135.345 29.51C132.684 29.51 130.23 28.8606 127.984 27.5618C125.738 26.2631 123.954 24.5 122.636 22.2726C121.316 20.0452 120.657 17.6214 120.657 15.0011C120.657 12.3808 121.317 9.95699 122.636 7.72959C123.956 5.5022 125.738 3.73912 127.984 2.44035C130.23 1.14157 132.684 0.492188 135.345 0.492188C138.006 0.492188 140.455 1.14157 142.69 2.44035C144.924 3.73912 146.702 5.5022 148.022 7.72959ZM143.473 19.7822C144.313 18.3195 144.733 16.7252 144.733 15.0011C144.733 13.277 144.313 11.6827 143.473 10.22C142.633 8.75725 141.494 7.59972 140.054 6.74902C138.616 5.8967 137.044 5.47135 135.343 5.47135C133.642 5.47135 132.066 5.8967 130.616 6.74902C129.166 7.60134 128.021 8.75725 127.181 10.22C126.341 11.6827 125.921 13.277 125.921 15.0011C125.921 16.7268 126.341 18.3195 127.181 19.7822C128.021 21.2449 129.166 22.4025 130.616 23.2548C132.068 24.1071 133.642 24.5325 135.343 24.5325C137.044 24.5325 138.614 24.1071 140.054 23.2548C141.494 22.4025 142.633 21.2449 143.473 19.7822Z" fill="#F1C410"/>
<path d="M66.9022 1.08105H49.4968V5.70306H66.9022V1.08105Z" fill="#F1C410"/>
<path d="M83.1125 12.7832H49.4968V17.4052H83.1125V12.7832Z" fill="#F1C410"/>
<path d="M66.9022 24.2969H49.4968V28.9189H66.9022V24.2969Z" fill="#F1C410"/>
</g>
<defs>
<clipPath id="clip0_1264_8364">
<rect width="150" height="30" fill="white"/>
</clipPath>
</defs>
</svg>
