<svg width="15" height="18" viewBox="0 0 15 18" fill="none" xmlns="http://www.w3.org/2000/svg">
<path d="M7.49992 4.7523C5.99757 4.7523 4.7768 5.96966 4.7768 7.46351C4.7768 8.95737 5.9995 10.1747 7.49992 10.1747C9.00034 10.1747 10.223 8.95737 10.223 7.46351C10.223 5.96966 9.00034 4.7523 7.49992 4.7523ZM7.49992 8.78648C6.769 8.78648 6.17307 8.19316 6.17307 7.46543C6.17307 6.73771 6.769 6.14439 7.49992 6.14439C8.23084 6.14439 8.82677 6.73771 8.82677 7.46543C8.82677 8.19316 8.23084 8.78648 7.49992 8.78648Z" fill="#282828"/>
<path d="M14.9886 7.05069C14.8709 4.93471 13.843 2.95315 12.169 1.61674C10.8615 0.574116 9.20292 0 7.5 0C5.79708 0 4.14045 0.574116 2.83096 1.61674C1.15697 2.95315 0.129052 4.93471 0.0114097 7.05069C-0.106232 9.16858 0.690262 11.2442 2.19647 12.7438L6.19244 16.7223C6.53379 17.0641 6.99086 17.2504 7.47493 17.2504C7.959 17.2504 8.40642 17.066 8.74778 16.73L12.8035 12.7438C14.3097 11.2442 15.1062 9.16858 14.9886 7.05069ZM11.818 11.7569L7.76614 15.7392C7.608 15.8948 7.33607 15.8928 7.17986 15.7392L3.18389 11.7607C1.95925 10.5415 1.30933 8.85176 1.40576 7.12749C1.50218 5.38018 2.31796 3.8076 3.7046 2.70353C4.7653 1.85676 6.11337 1.39209 7.5 1.39209C8.88663 1.39209 10.2347 1.85868 11.2954 2.70353C12.682 3.80952 13.4978 5.38018 13.5942 7.12749C13.6887 8.85176 13.0407 10.5415 11.82 11.7569H11.818Z" fill="#282828"/>
</svg>
