<svg width="50" height="50" viewBox="0 0 50 50" fill="none" xmlns="http://www.w3.org/2000/svg">
<path fill-rule="evenodd" clip-rule="evenodd" d="M25.0249 0.000106333C30.811 0.000106333 35.8947 3.62249 37.7579 8.91666C38.1023 9.8952 37.5752 10.9631 36.5805 11.3019C35.5859 11.6407 34.5004 11.1221 34.156 10.1436C32.8202 6.34822 29.174 3.75008 25.0174 3.75006C19.8498 3.72991 15.6134 7.70365 15.3324 12.7145L15.3177 13.2026V16.5653H34.7085C41.0827 16.5653 46.2504 21.6501 46.2504 27.9227V38.6426C46.2504 44.9151 41.0827 50 34.7085 50H15.2916C8.91733 50 3.74963 44.9151 3.74963 38.6426V27.9227C3.74963 22.9549 6.991 18.7321 11.506 17.1903L11.506 13.1944C11.5386 5.87708 17.5939 -0.0288924 25.0249 0.000106333ZM34.7093 20.3149H15.2923C11.0234 20.3149 7.56213 23.7207 7.56213 27.9224V38.6423C7.56213 42.8439 11.0234 46.2497 15.2923 46.2497H34.7093C38.9782 46.2497 42.4395 42.8439 42.4395 38.6423V27.9224C42.4395 23.7207 38.9782 20.3149 34.7093 20.3149ZM26.8882 30.2507C26.762 29.3355 25.9646 28.6301 24.9997 28.6301C23.9472 28.6301 23.0939 29.4695 23.0939 30.5051V36.06L23.1113 36.3145C23.2375 37.2296 24.0349 37.935 24.9997 37.935C26.0523 37.935 26.9056 37.0956 26.9056 36.06V30.5051L26.8882 30.2507Z" fill="#F1C410"/>
</svg>
