<svg width="50" height="50" viewBox="0 0 50 50" fill="none" xmlns="http://www.w3.org/2000/svg">
<path fill-rule="evenodd" clip-rule="evenodd" d="M19.6583 2.22675C22.4738 -0.601536 26.9792 -0.726053 29.8731 1.79879L30.3289 2.22374L32.1255 4.02034C32.7426 4.63456 33.5521 5.01326 34.4131 5.09833L34.7849 5.11665H37.3545C41.3635 5.11665 44.6416 8.25161 44.8707 12.2032L44.8834 12.6456V15.2127C44.8834 16.087 45.1849 16.9276 45.7288 17.596L45.9766 17.8715L47.7733 19.6682C50.6017 22.4838 50.7281 26.9864 48.1369 29.9536L47.7989 30.3163L45.9782 32.137C45.3658 32.7508 44.9869 33.5609 44.9018 34.4211L44.8834 34.7923V37.3645C44.8834 41.3732 41.7487 44.6492 37.7969 44.8781L37.3545 44.8909H34.7849C33.9137 44.8909 33.072 45.1937 32.4033 45.739L32.1277 45.9875L30.3334 47.7793C27.5208 50.611 23.015 50.7366 20.0466 48.1445L19.6613 47.7838L17.8688 45.9912C17.2479 45.3747 16.4369 44.9947 15.5782 44.9093L15.2078 44.8909H12.6356C8.62838 44.8909 5.35098 41.7576 5.122 37.8067L5.10922 37.3645V34.7923C5.10922 33.9225 4.80601 33.08 4.26089 32.4125L4.01263 32.1376L2.22007 30.3426C-0.610961 27.5275 -0.736538 23.0216 1.85564 20.0561L2.19381 19.6937L4.00885 17.8762C4.62613 17.2545 5.00564 16.4451 5.09087 15.5843L5.10922 15.2127V12.6456L5.122 12.2033C5.34252 8.39843 8.38998 5.35002 12.1935 5.12943L12.6356 5.11665H15.2078C16.0788 5.11665 16.9206 4.81448 17.5881 4.27162L17.8631 4.0244L19.6583 2.22675ZM27.7577 4.95137L27.6581 4.85882C26.2726 3.4796 24.0832 3.39885 22.6002 4.61448L22.3134 4.87489L20.5105 6.68025C19.2176 7.96403 17.5075 8.73162 15.7022 8.85063L15.2077 8.86691H12.6356C10.6669 8.86691 9.04788 10.3771 8.87406 12.3025L8.85861 12.6464V15.2135C8.85861 17.0361 8.19718 18.7888 7.00413 20.1587L6.66567 20.5226L4.84802 22.3428C3.46868 23.7284 3.38837 25.9172 4.60732 27.4021L4.86843 27.6893L6.66632 29.4897C7.95214 30.7785 8.72276 32.4916 8.84226 34.2983L8.85861 34.7931V37.3653C8.85861 39.3351 10.3677 40.9531 12.2919 41.1268L12.6356 41.1422H15.2077C17.0269 41.1422 18.781 41.8044 20.1513 42.9976L20.5152 43.3361L22.3233 45.1441C23.7186 46.5316 25.9081 46.6124 27.3916 45.3935L27.6785 45.1324L29.4804 43.3329C30.772 42.0475 32.4829 41.2779 34.2899 41.1586L34.7849 41.1422H37.3545C39.3259 41.1422 40.9447 39.6339 41.1185 37.7091L41.1339 37.3653V34.7931C41.1339 32.9713 41.7958 31.2141 42.9873 29.8501L43.3253 29.4881L45.1438 27.6696C46.5231 26.2824 46.603 24.0947 45.3858 22.6103L45.125 22.3233L43.3206 20.5188C42.036 19.2251 41.2691 17.5168 41.1502 15.7088L41.1339 15.2135V12.6464C41.1339 10.6756 39.624 9.05621 37.6984 8.88236L37.3545 8.86691H34.7849C32.9622 8.86691 31.2073 8.20604 29.8403 7.01379L29.4773 6.67555L27.7577 4.95137ZM30.087 32.7603C30.437 33.1103 30.9119 33.3102 31.4118 33.3102C31.9118 33.3102 32.3867 33.1103 32.7366 32.7603C32.9116 32.5853 33.0616 32.3604 33.1616 32.1354C33.2366 31.9104 33.2866 31.688 33.2866 31.4355C33.2866 31.1855 33.2366 30.9356 33.1616 30.7106C33.0616 30.4856 32.9116 30.2857 32.7366 30.1107C32.0367 29.4108 30.7869 29.4108 30.087 30.1107C29.9121 30.2857 29.7871 30.4856 29.6871 30.7106C29.5871 30.9356 29.5371 31.1855 29.5371 31.4355C29.5371 31.688 29.5871 31.9104 29.6871 32.1354C29.7871 32.3604 29.9121 32.5853 30.087 32.7603ZM18.5628 20.4622C18.3128 20.4622 18.0878 20.4097 17.8629 20.3097C17.6379 20.2097 17.4129 20.0872 17.2379 19.9123C17.063 19.7123 16.938 19.5123 16.838 19.2873C16.738 19.0599 16.688 18.8374 16.688 18.5874C16.688 18.335 16.738 18.0875 16.838 17.8625C16.938 17.6376 17.063 17.4126 17.2379 17.2626C17.9628 16.5602 19.1877 16.5602 19.8876 17.2626C20.2375 17.6101 20.4375 18.0875 20.4375 18.5874C20.4375 18.8374 20.4125 19.0599 20.3125 19.2873C20.2125 19.5123 20.0625 19.7123 19.8876 19.9123C19.7126 20.0872 19.5126 20.2097 19.2877 20.3097C19.0627 20.4097 18.8127 20.4622 18.5628 20.4622ZM32.7457 17.2524C32.0136 16.5203 30.8265 16.5203 30.0944 17.2524L17.2463 30.1005L17.0648 30.3108C16.5202 31.0447 16.5807 32.0862 17.2463 32.7518C17.9784 33.4839 19.1654 33.4839 19.8975 32.7518L32.7457 19.9036L32.9272 19.6934C33.4718 18.9595 33.4113 17.918 32.7457 17.2524Z" fill="#F1C410"/>
</svg>
