<svg width="50" height="46" viewBox="0 0 50 46" fill="none" xmlns="http://www.w3.org/2000/svg">
<path fill-rule="evenodd" clip-rule="evenodd" d="M39.64 0.292969H10.36C4.63947 0.292969 0.00250025 4.92994 0.00250025 10.6505L1.22913e-07 17.6248C-0.000370884 18.6606 0.839204 19.5005 1.875 19.5005C4.00443 19.5005 5.5975 21.0075 5.5975 23.0055C5.5975 25.0674 3.93697 26.728 1.875 26.728C0.839466 26.728 1.22913e-07 27.5674 1.22913e-07 28.603V35.353C1.22913e-07 41.0738 4.63477 45.7105 10.355 45.7105H39.6425C45.3648 45.7105 50 41.0743 50 35.353V28.603C50 27.5674 49.1605 26.728 48.125 26.728C46.0608 26.728 44.4 25.0677 44.4 23.0055C44.4 21.0631 45.8703 19.4795 47.765 19.2999L48.125 19.283C49.1611 19.283 50.0008 18.4427 50 17.4066L49.995 10.6491C49.995 4.92963 45.3602 0.292969 39.64 0.292969ZM39.6393 4.04266L40.0571 4.05565C43.5112 4.27117 46.2443 7.14043 46.2443 10.6502L46.2486 15.7707L45.9994 15.8374C42.9025 16.75 40.6493 19.6083 40.6493 23.0052L40.662 23.4449C40.8469 26.6455 43.0376 29.2995 45.9997 30.1727L46.2486 30.2357L46.2493 35.3527C46.2493 39.0031 43.2928 41.9602 39.6418 41.9602H10.3543L9.93651 41.9472C6.48248 41.7316 3.74933 38.8624 3.74933 35.3527L3.74858 30.2357L3.99804 30.1727C7.09354 29.2597 9.34683 26.4001 9.34683 23.0052L9.33425 22.5679C9.15056 19.3902 6.97371 16.8645 4.00611 16.038L3.74858 15.9732L3.75183 10.6508C3.75183 7.00069 6.70986 4.04266 10.3593 4.04266H39.6393ZM21.0777 17.4894L17.1922 18.0547L16.9158 18.1112C15.1289 18.5805 14.4732 20.8588 15.8442 22.1987L18.6577 24.9394L17.9943 28.8153L17.9627 29.0829C17.8429 30.9328 19.8179 32.2661 21.5167 31.3802L24.9977 29.5494L28.477 31.3772L28.7221 31.4892C30.4467 32.1702 32.3298 30.7106 32.0053 28.8162L31.3377 24.9394L34.1548 22.2015L34.3458 21.9934C35.5189 20.5641 34.7077 18.3363 32.8149 18.0555L28.9202 17.4894L27.1784 13.9625C26.2921 12.157 23.7183 12.157 22.8231 13.9582L21.0777 17.4894ZM24.9974 18.0216L25.9932 20.035L26.1253 20.2613C26.4188 20.6917 26.8813 20.9843 27.4045 21.0604L29.6174 21.3816L28.0168 22.9436L27.842 23.1393C27.5225 23.5517 27.3868 24.0828 27.4764 24.6047L27.8549 26.8166L25.8721 25.7729L25.632 25.6673C25.1414 25.4914 24.595 25.5266 24.1267 25.7729L22.1424 26.8141L22.5223 24.6047L22.5486 24.3437C22.5643 23.8225 22.3617 23.3133 21.9824 22.944L20.3799 21.3816L22.5944 21.0603C23.2048 20.9715 23.7325 20.5881 24.0056 20.035L24.9974 18.0216Z" fill="#F1C410"/>
</svg>
