<svg width="158" height="74" viewBox="0 0 158 74" fill="none" xmlns="http://www.w3.org/2000/svg">
<path d="M30.2819 35.9814L18.9045 27.4235L7.17155 35.9814L11.4728 22.4786L0.693726 14.1384L14.0656 13.9294L19.0085 0L23.4745 14.1122L37.1152 14.1384L26.2582 22.4786L30.2819 35.9814Z" fill="#00542A"/>
<path d="M29.406 44.4785H0V74.0002H29.406V44.4785Z" fill="#00B67A"/>
<path d="M17.2916 56.9452L24.9141 56.9626L18.8438 61.6202L15.1497 64.1536L19.3555 63.344L21.0985 69.1682L14.7334 64.3887L8.17754 69.1682L10.5796 61.6202L4.55273 56.9626L12.0278 56.8407L14.7941 49.0576L17.2916 56.9452Z" fill="white"/>
<path d="M61.5351 44.4785H32.129V74.0002H61.5351V44.4785Z" fill="#00B67A"/>
<path d="M49.4206 56.9452L57.0431 56.9626L50.9729 61.6202L47.2787 64.1536L51.4845 63.344L53.2275 69.1682L46.8624 64.3887L40.3066 69.1682L42.7087 61.6202L36.6818 56.9626L44.1568 56.8407L46.9231 49.0576L49.4206 56.9452Z" fill="white"/>
<path d="M93.664 44.4785H64.2579V74.0002H93.664V44.4785Z" fill="#00B67A"/>
<path d="M81.5495 56.9452L89.172 56.9626L83.1018 61.6202L79.4163 64.1536L83.6134 63.344L85.3564 69.1682L78.9913 64.3887L72.4355 69.1682L74.8376 61.6202L68.8107 56.9626L76.2944 56.8407L79.0521 49.0576L81.5495 56.9452Z" fill="white"/>
<path d="M125.793 44.4785H96.387V74.0002H125.793V44.4785Z" fill="#00B67A"/>
<path d="M113.679 56.9452L121.301 56.9626L115.231 61.6202L111.545 64.1536L115.751 63.344L117.485 69.1682L111.12 64.3887L104.565 69.1682L106.967 61.6202L100.94 56.9626L108.423 56.8407L111.181 49.0576L113.679 56.9452Z" fill="white"/>
<path d="M157.922 44.4785H128.516V74.0002H157.922V44.4785Z" fill="#00B67A"/>
<path d="M145.807 56.9452L153.43 56.9626L147.36 61.6202L143.674 64.1536L147.88 63.344L149.614 69.1682L143.249 64.3887L136.693 69.1682L139.095 61.6202L133.077 56.9626L140.552 56.8407L143.31 49.0576L145.807 56.9452Z" fill="white"/>
<path d="M23.4745 14.1122L37.1152 14.1384L26.2582 22.4786L19.6503 27.0056L27.1774 25.5692L30.2819 35.9814L18.9045 27.4235L7.17155 35.9814L11.4728 22.4786L0.693726 14.1384L14.0656 13.9294L19.0085 0L23.4745 14.1122Z" fill="#00B67A"/>
<path d="M47.9637 33.7787V16.8719H41.4512V14.0947H57.4246V16.8719H50.9381V33.7787H47.9637Z" fill="white"/>
<path d="M60.503 23.7758C60.071 24.7602 59.8522 25.8256 59.8613 26.9012V33.7789H56.8088V19.4403H59.5491V22.3742C59.9938 21.3149 60.7348 20.4077 61.6824 19.7624C62.7664 19.2287 63.9734 18.9971 65.1771 19.0921V21.6429C65.1771 21.6429 61.639 21.582 60.503 23.7758Z" fill="white"/>
<path d="M72.0625 34.1011C71.3404 34.1325 70.6196 34.0124 69.9463 33.7486C69.2729 33.4848 68.6617 33.083 68.1515 32.5689C67.2323 31.559 67.1803 29.7482 67.1803 27.7458V19.4404H70.0593V27.4498C70.0593 30.0616 70.8485 31.8028 72.9644 31.8028C73.4933 31.805 74.0173 31.6997 74.5046 31.4932C74.9919 31.2867 75.4326 30.9834 75.8001 30.6014C76.4765 29.844 76.5458 28.3901 76.5458 26.9797V19.4404H79.7024V33.9531H76.6499V31.4197C76.3359 32.192 75.7825 32.8422 75.0716 33.2741C74.1537 33.7992 73.1188 34.0836 72.0625 34.1011Z" fill="white"/>
<path d="M88.3829 34.1188C86.8809 34.1483 85.4044 33.7269 84.1424 32.9087L83.9777 32.7868C83.4218 32.3787 82.9578 31.8577 82.6157 31.2578C82.2735 30.6578 82.061 29.9923 81.9918 29.3045H85.0356C85.183 29.9574 85.1223 30.6713 85.6947 31.1327C87.0648 32.2558 89.7878 32.4647 91.0885 31.1327C91.3996 30.8058 91.5817 30.3765 91.6009 29.9248C91.62 29.4731 91.4749 29.0299 91.1926 28.6776C90.4555 27.8071 88.9119 27.6678 87.854 27.4849C86.9651 27.3353 86.0935 27.0961 85.2524 26.7711C84.5675 26.5517 83.9335 26.1964 83.388 25.7263C82.8013 25.1155 82.4693 24.3026 82.4601 23.4541C82.4372 22.8756 82.5464 22.2995 82.7793 21.7698C83.0123 21.2402 83.3629 20.771 83.8042 20.3983C84.937 19.5073 86.3573 19.0671 87.7933 19.1621C89.3628 19.1621 91.34 19.3536 92.3113 20.1111C92.8046 20.5021 93.213 20.9904 93.5113 21.5458C93.8096 22.1013 93.9914 22.7122 94.0456 23.3409H91.1406C90.9411 22.0525 89.5189 21.2863 88.3222 21.1993C87.1255 21.1122 85.7207 21.3038 85.2091 22.4529C84.6974 23.6021 85.6253 24.1419 86.4404 24.5423C88.1748 25.4129 90.0566 25.4129 91.8256 26.0223C92.6671 26.2693 93.4121 26.7709 93.9589 27.4588C94.4598 28.315 94.6407 29.3223 94.469 30.3002C94.2974 31.2781 93.7846 32.1627 93.0223 32.7955C91.7719 33.7247 90.2404 34.1921 88.6864 34.1188H88.3829Z" fill="white"/>
<path d="M106.264 38.8452V19.4833H108.866V21.6511C109.443 20.9533 110.139 20.3637 110.921 19.9099C111.802 19.3891 112.813 19.1351 113.835 19.1786C115.021 19.1565 116.19 19.4703 117.208 20.084C118.21 20.7018 119.023 21.5843 119.558 22.6348C120.142 23.7541 120.44 25.0016 120.425 26.2652C120.441 27.5206 120.143 28.7599 119.558 29.8694C118.994 30.9228 118.214 32.4812 117.225 33.0819C116.173 33.6913 114.971 33.9929 113.757 33.9525C112.846 33.991 111.94 33.7972 111.125 33.3892C110.309 32.9812 109.609 32.3723 109.091 31.6193V38.8539L106.264 38.8452ZM113.141 31.7847C113.71 31.7936 114.273 31.6673 114.783 31.4161C115.294 31.165 115.739 30.7961 116.081 30.3395C116.881 29.2527 117.28 27.9198 117.208 26.5699C117.227 25.6398 117.046 24.7165 116.679 23.8624C116.374 23.1281 115.876 22.4904 115.239 22.0167C114.458 21.4681 113.495 21.2442 112.553 21.3918C111.611 21.5395 110.762 22.0473 110.184 22.809C109.385 23.8944 108.981 25.2217 109.039 26.5699C108.976 27.9214 109.381 29.2531 110.184 30.3395C110.525 30.8011 110.972 31.1735 111.486 31.425C112.001 31.6766 112.569 31.8 113.141 31.7847Z" fill="white"/>
<path d="M122.758 33.8136V19.4141H125.611V33.8136H122.758Z" fill="white"/>
<path d="M122.758 17.0025V13.9902H125.611V17.0025H122.758Z" fill="white"/>
<path d="M128.941 33.8135V13.9902H131.794V33.8135H128.941Z" fill="white"/>
<path d="M141.428 34.205C140.153 34.2238 138.896 33.9024 137.786 33.2735C136.713 32.6521 135.829 31.7493 135.228 30.6617C134.578 29.461 134.252 28.1104 134.283 26.7441C134.251 25.3783 134.584 24.029 135.245 22.8351C135.856 21.7402 136.756 20.8363 137.847 20.2234C138.961 19.6123 140.21 19.292 141.48 19.292C142.75 19.292 143.999 19.6123 145.114 20.2234C146.201 20.8402 147.101 21.7432 147.715 22.8351C148.37 24.0313 148.699 25.3796 148.669 26.7441C148.7 28.1115 148.371 29.4628 147.715 30.6617C147.098 31.7515 146.199 32.6538 145.114 33.2735C143.989 33.9071 142.717 34.2286 141.428 34.205ZM141.558 31.7848C142.289 31.7896 143.006 31.5907 143.631 31.2102C144.298 30.7847 144.836 30.1821 145.183 29.469C145.602 28.5775 145.804 27.5988 145.773 26.6135C145.803 25.6293 145.604 24.6516 145.192 23.758C144.856 23.0449 144.327 22.4413 143.666 22.0168C143.036 21.6404 142.317 21.4417 141.584 21.4417C140.852 21.4417 140.133 21.6404 139.503 22.0168C138.838 22.4428 138.304 23.0455 137.959 23.758C137.54 24.6495 137.338 25.6282 137.37 26.6135C137.338 27.5988 137.54 28.5775 137.959 29.469C138.301 30.1809 138.832 30.7837 139.494 31.2102C140.115 31.5925 140.83 31.7917 141.558 31.7848Z" fill="white"/>
<path d="M103.758 21.573V19.5098H100.862V15.1133H97.9652V19.562H95.5284V21.573H97.9565V30.8796C97.9565 30.8796 97.7831 33.9006 100.688 33.9006H103.749V31.2888H101.599C101.406 31.2865 101.222 31.2088 101.086 31.0721C100.95 30.9355 100.873 30.7508 100.87 30.5575V21.573H103.758Z" fill="white"/>
<path d="M157.965 21.573V19.5098H155.104V15.1133H152.216V19.562H149.788V21.573H152.216V30.8796C152.216 30.8796 152.043 33.9006 154.948 33.9006H157.965V31.2888H155.797C155.605 31.2865 155.421 31.2088 155.285 31.0721C155.149 30.9355 155.071 30.7508 155.069 30.5575V21.573H157.965Z" fill="white"/>
</svg>
